<?xml version="1.0" encoding="UTF-8"?>
<svg enable-background="new 0 0 343 343" version="1.1" viewBox="0 0 343 343" xml:space="preserve" xmlns="http://www.w3.org/2000/svg">
<style type="text/css">
	.st0{fill:#9C1D21;}
	.st1{fill:#FFFBE6;}
</style>
	<path class="st0" d="m343 167c-1.1 0.1-2.2 0.4-2.2-1.5-0.4-10.9-1.8-21.7-4.2-32.4-0.3-1.4-0.3-2.3 1.4-2.8 2.3 8.6 3.6 17.4 4.4 26.3 0.1 0.9-0.6 2.1 0.7 2.8-0.1 2.5-0.1 5-0.1 7.6z"/>
	<path class="st0" d="m157.2 343c-3.9-1.6-8.1-1.2-12.1-2-2.9-0.6-5.9-1-8.9-1.7-0.6-0.1-1.9 0-1.8-1.1 0.1-1.2 1.3-1 2.2-0.9 4.8 0.8 9.6 1.7 14.4 2.2 5.2 0.6 10.4 0.9 15.6 1.2 1.5 0.1 2.8 0.1 2.4 2.2-3.9 0.1-7.9 0.1-11.8 0.1z"/>
	<path class="st0" d="m0 164.9c1.7-0.2 2.2 0.5 2.2 2.2-0.1 5.8-0.2 11.6 0.5 17.4 0.4 3-1.7 1-2.7 1.4v-21z"/>
	<path class="st0" d="m175.3 343c0.1-1.4 0.5-2.3 2.2-2.2 1.6 0.1 3.2-0.2 4.8-0.2 0.7 0 1.6-0.6 2 0.5 0.5 1.3-1.2 1.1-1.3 1.9h-7.7z"/>
	<path class="st0" d="M172,9.8c89.1,0.1,161.3,72.4,161.2,161.5c0,89.2-72.5,161.5-161.7,161.3c-89.1-0.2-161.2-72.6-161-161.6   C10.6,81.8,82.9,9.7,172,9.8z M171.9,329c87.1,0,157.7-70.6,157.8-157.8c0.1-87.3-70.7-158-157.9-158C84.6,13.4,14,83.9,14,171.1   C13.9,258.4,84.6,329.1,171.9,329z"/>
	<path class="st0" d="m171.5 2.3c-7.2-0.2-14.4 0.4-21.5 1.2-0.8 0.1-2.3 1-2.5-0.7-0.1-1.6 1.4-1.2 2.3-1.3 10-1.3 20.1-1.7 30.2-1.2 1 0 2.8-0.5 2.7 1.2-0.1 1.8-1.8 0.8-2.9 0.8h-8.3z"/>
	<path class="st0" d="m22.2 252.7c1 0.1 1.1 1 1.4 1.5 4.5 8 9.6 15.6 15.3 22.8 0.6 0.7 1.9 1.6 0.4 2.6-1.3 0.9-1.5-0.6-2-1.2-5.7-7.2-10.9-14.7-15.3-22.8-0.4-0.7-1.4-1.4-0.6-2.5 0.2-0.2 0.6-0.3 0.8-0.4z"/>
	<path class="st0" d="m70.1 307.4l1.8 1.2c7.1 5.2 14.6 9.8 22.5 13.9 0.9 0.4 2.5 0.8 1.8 2-0.5 1-1.8 0.3-2.8-0.2-8-4.1-15.6-8.8-22.8-14-0.7-0.5-1.7-1-1.3-2.2 0.1-0.3 0.5-0.5 0.8-0.7z"/>
	<path class="st0" d="m284.7 42.8c0.3 0.3 0.7 0.6 1 0.9 6.1 5.4 11.7 11.2 17 17.5 0.4 0.5 1.6 0.9 0.6 1.9-1.1 1-1.6 0.1-2.2-0.6-5.1-6.1-10.6-11.7-16.5-17-0.6-0.5-1.4-1-1-2 0.3-0.5 0.6-0.8 1.1-0.7z"/>
	<path class="st0" d="m194.1 341.6c-0.9 0.1-1.7 0-1.8-1.1-0.1-1 0.8-0.9 1.4-1 7.8-1.1 15.5-2.5 23.1-4.7 0.6-0.2 1.7-0.8 1.9 0.6 0.1 0.8-0.3 1.2-1.1 1.4-7.8 2.2-15.6 3.7-23.5 4.8z"/>
	<path class="st0" d="m340.3 201.8c-1.3 7.6-3.2 15.2-5.7 22.7-0.2 0.7-0.4 1.5-1.3 1.1-1.2-0.5-0.8-1.4-0.5-2.3 2.1-6.2 3.6-12.6 4.9-19.1 0.2-0.9 0.3-1.8 0.5-2.7 0.2-0.8 0.3-1.7 1.5-1.4 0.9 0.1 0.7 0.9 0.6 1.7z"/>
	<path class="st0" d="m58.9 44.7c-0.3-0.2-0.6-0.3-0.8-0.6-0.6-1 0.2-1.5 0.8-2 3.7-3 7.4-6 11.2-8.9 2.5-1.9 5.1-3.6 7.7-5.4 0.5-0.4 1.1-1.1 1.7-0.2 0.5 0.6 0.4 1.3-0.3 1.8-6.9 4.5-13.4 9.5-19.7 15-0.1 0.1-0.4 0.2-0.6 0.3z"/>
	<path class="st0" d="m298.5 286.6c-0.5 0.6-0.9 1.2-1.3 1.7-4.5 4.9-9.3 9.5-14.4 13.7-0.5 0.5-1.1 1.8-2.1 0.5-0.9-1.2 0.3-1.6 0.9-2.2 5-4.3 9.8-9 14.3-13.8 0.4-0.5 0.8-1.2 1.6-1 0.3 0.1 0.6 0.6 1 1.1z"/>
	<path class="st0" d="m14.3 107.4c-1.3-0.5-1.3-1.4-0.9-2.3 2.4-5.6 5-11.1 8-16.5 0.3-0.5 0.4-1.1 1.2-0.6 0.5 0.3 0.9 0.8 0.6 1.4-0.5 1-1.1 2-1.6 3.1-2.1 4.4-4.2 8.7-6.2 13.1-0.3 0.6-0.4 1.4-1.1 1.8z"/>
	<path class="st0" d="m33.5 69.7c3.9-5.4 8.2-10.4 12.7-15.3 0.4-0.5 0.9-1.3 1.7-0.5 0.6 0.6 0.6 1.3 0 1.8-4.1 4.4-8 9-11.7 13.8-0.6 0.9-1.6 0.8-2.7 0.2z"/>
	<path class="st0" d="m274.5 308.1c0 0.9-0.7 1.2-1.3 1.6-4.5 3-9 6-13.6 9-0.8 0.6-1.9 1.5-2.6 0-0.6-1.3 0.9-1.3 1.6-1.8 4.5-3.1 9-6.1 13.6-9.1 0.5-0.3 0.9-1.1 1.7-0.5 0.3 0.2 0.4 0.5 0.6 0.8z"/>
	<path class="st0" d="m257.8 23.8c0 1.1-0.2 1.7-1.2 1.2l-14.4-7.5c-0.5-0.3-0.6-0.6-0.4-1.1 0.3-0.5 0.6-1.1 1.3-0.7 4.8 2.2 9.5 4.6 14.1 7.3 0.3 0.2 0.5 0.7 0.6 0.8z"/>
	<path class="st0" d="m213.7 5.1c4.7 1.5 9.5 3 14.2 4.5 0.5 0.2 1.1 0.4 0.7 1.2-0.3 0.6-0.5 0.9-1.3 0.7-4.6-1.4-9.3-2.8-13.9-4.2-0.6-0.2-1.1-0.5-1-1.2s0.5-1 1.3-1z"/>
	<path class="st0" d="m317 258.7c1.4 1.3 0.9 2.3 0.2 3.3-2.4 3.6-4.8 7.1-7.2 10.7-0.4 0.6-0.7 1.6-1.8 0.8-1-0.7-0.3-1.4 0.1-2.1 2.8-4.1 5.7-8.3 8.7-12.7z"/>
	<path class="st0" d="m8.6 220.8c0.9 0.2 1 0.8 1.2 1.3 1.5 4.3 3 8.5 4.6 12.7 0.3 0.9 0.7 1.9-0.5 2.3-1.1 0.4-1.2-0.8-1.4-1.5-1.5-4.1-3-8.3-4.5-12.4-0.5-1-0.6-2 0.6-2.4z"/>
	<path class="st0" d="m100 17.2c0 0.7-0.5 0.9-1.1 1.2-3.9 2-7.7 4.1-11.6 6.1-0.6 0.3-1.1 0.9-1.8 0.1-0.7-1-0.1-1.5 0.7-1.9 4-2.1 8-4.2 12-6.2 0.9-0.6 1.6-0.3 1.8 0.7z"/>
	<path class="st0" d="m320 86.1c0.2 0.3 0.5 0.6 0.7 1 1.9 3.7 3.8 7.3 5.8 11 0.4 0.8 0.7 1.6-0.3 2-1.2 0.5-1.2-0.6-1.6-1.2-1.8-3.5-3.6-7-5.4-10.4-0.6-1.1-0.8-1.9 0.8-2.4z"/>
	<path class="st0" d="m125.9 337c-3.8-1.3-7.7-2.5-11.5-3.7-0.9-0.3-1.6-0.8-1.3-1.7 0.4-1 1.4-0.5 2.1-0.3 3.8 1.1 7.5 2.3 11.2 3.5 0.7 0.2 1.7 0.4 1.3 1.6-0.3 1-1 0.7-1.8 0.6z"/>
	<path class="st0" d="m321.3 254.2c-0.8-0.4-1.4-0.7-0.8-1.8 1.9-3.7 3.7-7.5 5.6-11.2 0.2-0.4 0.3-1 0.9-0.7 0.5 0.2 1.1 0.7 0.9 1.3-1.6 4.2-3.8 8.2-6 12.2-0.1 0.1-0.4 0.1-0.6 0.2z"/>
	<path class="st0" d="m55.1 294.7c0.4 0.4 0.8 0.6 1.1 0.9 3 2.6 5.9 5.1 8.9 7.7 0.5 0.4 1.4 0.9 0.9 1.6-0.5 0.6-1.5 0.7-2.2 0.1-3-2.6-5.9-5.2-8.9-7.7-0.6-0.5-0.7-1.2-0.4-1.9 0.1-0.2 0.4-0.4 0.6-0.7z"/>
	<path class="st0" d="m2.7 155.8c-1.1-0.6-2-0.9-1.9-2.1 0.4-3.2 0.9-6.4 1.3-9.6 0.1-0.6 0.2-1.2 1-1 1 0.2 1.2 0.9 1.1 1.8-0.5 3.5-1 7-1.5 10.9z"/>
	<path class="st0" d="m136.6 3.5c1.3-0.1 2.1-0.3 2.3 0.7 0.2 0.9-0.4 1.2-1.2 1.4-2.9 0.7-5.9 1.3-8.8 2-0.9 0.2-1.7 0-1.9-1-0.2-1.1 0.8-0.9 1.4-1.1 3-0.7 5.9-1.4 8.2-2z"/>
	<path class="st0" d="m9.6 116c0.8 0.3 1.4 0.9 1.1 1.8-0.9 3.1-1.9 6.2-2.8 9.3-0.3 1.1-0.9 0.9-1.4 0.2-0.6-0.7 2-10.8 2.8-11.3 0.1 0.1 0.2 0.1 0.3 0z"/>
	<path class="st0" d="m6.8 211.4c0.2 0.7 0.2 1.4-0.7 1.6-1 0.3-1.1-0.4-1.3-1.1-0.6-2.8-1.3-5.6-1.9-8.4-0.1-0.7-0.2-1.3 0.8-1.6 1-0.2 1.1 0.3 1.3 1.1l1.8 8.4z"/>
	<path class="st0" d="m309.3 69.9c0.3 0.3 0.7 0.4 0.8 0.7 1.5 2.2 3 4.4 4.6 6.5 0.5 0.7 0.4 1.3-0.3 1.7-0.6 0.4-1.1 0-1.4-0.5-1.4-2.1-2.9-4.2-4.4-6.3-0.8-1-0.2-1.5 0.7-2.1z"/>
	<path class="st0" d="m227 333.9c-0.6-0.1-1-0.2-1.1-0.8s0.2-1.1 0.8-1.4c2.3-0.9 4.7-1.8 7.1-2.7 0.5-0.2 0.9 0 1.2 0.4 0.3 0.6 0.3 1.2-0.3 1.5-2.6 1.1-5.2 2.1-7.7 3z"/>
	<path class="st0" d="m51 290.9c-0.4 1-1.2 1.1-1.9 0.5-1.6-1.5-3.1-3.1-4.6-4.7-0.8-0.9 0.1-1.2 0.7-1.5 0.6-0.2 5.8 5 5.8 5.7z"/>
	<path class="st0" d="m31.3 76.4c-1.3 2-2.6 3.9-3.9 5.8-0.3 0.5-0.9 0.4-1.1-0.1-0.2-0.4-0.5-1-0.3-1.2 1.1-1.8 2.2-3.5 3.3-5.3 0.3-0.5 0.6-0.7 1.1-0.3 0.3 0.3 0.5 0.7 0.9 1.1z"/>
	<path class="st0" d="m265.9 28.2c1.7 1.3 3.8 2.8 5.8 4.3 0.2 0.1 0 0.9-0.2 1.3-0.3 0.6-0.8 0.4-1.2 0.1-1.8-1.3-3.6-2.5-5.4-3.8-0.6-0.4-0.3-1-0.2-1.6 0.1-0.5 0.4-0.5 1.2-0.3z"/>
	<path class="st0" d="m336.1 123.1c0.2 1.1-0.4 2.1-0.9 1.8-2-1.2-1.6-3.7-2.5-5.6-0.3-0.8 0.7-1.6 1.1-1.3 1.8 1.3 1.5 3.6 2.3 5.1z"/>
	<path class="st0" d="m246.9 323.4c1-0.1 1.5 0.3 1.7 0.8 0.3 0.8-0.5 0.9-1 1.1-1.5 0.8-3.1 1.5-4.6 2.2-0.7 0.3-1.3 0.4-1.7-0.4-0.3-0.5-0.1-1 0.3-1.2 1.8-1 3.7-1.8 5.3-2.5z"/>
	<path class="st0" d="m332.3 111.8c0 0.8-0.5 1.1-1 1.3-0.5 0.3-0.8-0.1-1-0.6-0.7-1.7-1.4-3.4-2-5.1-0.2-0.6 0.1-1.1 0.7-1.4 0.5-0.3 1 0 1.1 0.4 0.9 1.8 1.6 3.7 2.2 5.4z"/>
	<path class="st0" d="m204 5.2c-0.2-0.1-0.5-0.1-0.7-0.2-1.4-0.5-3.3 0.2-4.2-1.5-0.1-0.2 0.5-1 0.7-1 2.1 0 4.1 0.3 6 1.1 0.1 0.1 0.2 0.6 0.1 0.9-0.2 1.2-1 1-1.9 0.7z"/>
	<path class="st0" d="m101.8 326.2c0.4 0.1 0.7 0.1 0.9 0.2 1.5 0.9 3.6 0.9 4.6 2.6 0.1 0.2-0.4 1-0.7 1-2-0.1-3.6-1.2-5.4-2-0.4-0.2-0.7-0.7-0.3-1.1 0.2-0.4 0.6-0.6 0.9-0.7z"/>
	<path class="st0" d="m342.3 188.7c-0.6 1.5 0.1 3.4-1.3 4.8-0.2 0.2-0.9 0.1-1-0.1-1.1-1.6 0.1-3.3 0.1-5 0-0.9 0.3-1.6 1.4-1.4 1.1 0.3 0.6 1.1 0.8 1.7z"/>
	<path class="st0" d="m329.2 233.4c0.8-1.1 0.5-2.9 2-3.5 0.5-0.2 1.4 0.5 1.1 1.3-0.5 1.3-0.4 3.1-2 3.6-0.7 0.2-1.3-0.4-1.1-1.4z"/>
	<path class="st0" d="m19.9 246.8c-0.5 0.6-1.1 1.4-1.2 1.3-1.6-0.7-1.8-2.5-2.4-3.9-0.2-0.6 0.6-1.3 0.9-1.2 1.7 0.6 1.4 2.6 2.7 3.8z"/>
	<path class="st0" d="m52.2 51.2c-0.8 0.1-1.2-0.4-1.2-1 0.1-1.7 1.6-2.4 2.7-3.2 0.8-0.6 1.3 0.6 1.2 1-0.2 1.5-1.7 2.2-2.7 3.2z"/>
	<path class="st0" d="m274.3 36.8c0.6-0.6 1.3-1.3 1.4-1.2 1.2 0.7 2.7 1.2 3.1 2.8 0.1 0.5-0.4 1.4-0.9 1.1-1.3-0.8-2.4-1.8-3.6-2.7z"/>
	<path class="st0" d="m116.5 10.8c-0.8 1.2-2.2 1.1-3.3 1.6-0.8 0.3-1-0.5-0.9-1 0.2-1.5 1.7-1.3 2.7-1.7 0.9-0.4 1.2 0.3 1.5 1.1z"/>
	<path class="st0" d="m107.9 13.9c-0.7 1.2-2.1 1.4-3.3 1.8-0.5 0.2-1.2-0.6-1.1-1.1 0.5-1.5 2.2-1.4 3.3-1.9 0.8-0.3 1 0.4 1.1 1.2z"/>
	<path class="st0" d="m3.5 193.4c0.1 0.9 0.2 2.2-1.2 2-1.5-0.2-0.9-1.7-1-2.6-0.1-0.7-0.6-1.9 0.8-1.8 1.7 0.1 1.2 1.4 1.4 2.4z"/>
	<path class="st0" d="m5.4 137.7c-3.3-1.3-0.6-3.4-1.2-5.2 3.1 1.5 1.4 3.4 1.2 5.2z"/>
	<path class="st0" d="m302.8 281.6c-0.8 0-1.5-0.7-1.4-0.9 0.5-1.2 1.3-2.4 2.6-3 0.5-0.3 1.3 0.5 1.2 0.9-0.4 1.3-1.4 2.2-2.4 3z"/>
	<path class="st1" d="m171.9 329c-87.3 0-158-70.7-157.9-158 0-87.1 70.6-157.6 157.8-157.7 87.3 0 158 70.7 157.9 158 0 87.1-70.6 157.7-157.8 157.7z"/>
</svg>
